<?xml version="1.0"?>
<svg xmlns="http://www.w3.org/2000/svg" xmlns:xlink="http://www.w3.org/1999/xlink" version="1.1" id="Capa_1" x="0px" y="0px" viewBox="0 0 56.48 56.48" style="enable-background:new 0 0 56.48 56.48;" xml:space="preserve" width="512px" height="512px"><g><g>
	<g>
		<path d="M20.006,38.575c-0.177,0-0.354,0.069-0.483,0.181c-0.209,0.188-0.248,0.426-0.248,0.656c0,0.531,0.263,1.405,0.913,1.405    c0.209,0,0.423-0.103,0.547-0.274c0.128-0.171,0.161-0.386,0.161-0.595C20.897,39.476,20.671,38.575,20.006,38.575z" data-original="#000000" class="active-path" data-old_color="#000000" fill="#636363"/>
	</g>
</g><g>
	<g>
		<path d="M55.026,9.939H1.454C0.65,9.939,0,10.59,0,11.393v33.694c0,0.803,0.65,1.455,1.454,1.455h53.572    c0.804,0,1.454-0.651,1.454-1.454V11.393C56.48,10.59,55.83,9.939,55.026,9.939z M22.817,17.684    c0.098-0.261,0.238-0.513,0.472-0.76c0.236-0.249,0.497-0.382,0.742-0.48c0.24-0.096,0.41-0.137,0.743-0.137    c0.401,0,0.796,0.126,1.125,0.341c0.194,0.127,0.367,0.286,0.512,0.476c0.044,0.058,0.088,0.118,0.127,0.182    c1.289,2.131,1.971,4.581,1.971,7.083c0,0.299-0.009,0.597-0.029,0.893c-0.142,2.195-0.809,4.324-1.951,6.205    c-0.38,0.625-1.045,0.998-1.776,0.998c-0.204,0-0.406-0.032-0.601-0.091c-0.165-0.051-0.325-0.12-0.475-0.211    c-0.583-0.353-0.926-0.95-0.986-1.582c-0.035-0.373,0.029-0.755,0.204-1.109c0.026-0.054,0.054-0.107,0.086-0.159    c0.901-1.485,1.378-3.194,1.378-4.943c0-0.367-0.026-0.731-0.068-1.093c-0.156-1.359-0.582-2.678-1.305-3.841    C22.641,18.903,22.618,18.21,22.817,17.684z M16.613,19.932c0.344-0.643,1.009-1.041,1.74-1.041c0.322,0,0.642,0.081,0.928,0.233    c1.873,1.004,3.527,2.438,4.715,4.076c0.042,0.362,0.067,0.726,0.067,1.093c0,1.748-0.475,3.458-1.378,4.943    c-0.033,0.056-0.062,0.109-0.086,0.158c-0.175,0.353-0.237,0.724-0.204,1.104c0,0,0,0.002,0,0.003    c-0.221-3.408-2.085-6.357-4.975-7.903C16.462,22.083,16.099,20.888,16.613,19.932z M18.469,39.861    c-0.035,0.03-0.04,0.04-0.051,0.08c-0.004,0.045-0.008,0.19-0.008,0.241v0.613l-0.72,0.165c-0.292,0.046-0.554,0.086-0.83,0.086    c-1.388,0-1.917-1.02-1.917-1.819c0-0.978,0.75-1.883,2.033-1.883c0.271,0,0.533,0.041,0.77,0.105    c0.377,0.105,0.554,0.236,0.665,0.312l-0.418,0.396l-0.176,0.041l0.126-0.201c-0.171-0.167-0.484-0.474-1.078-0.474    c-0.794,0-1.392,0.604-1.392,1.483c0,0.945,0.683,1.836,1.78,1.836c0.322,0,0.489-0.064,0.638-0.125v-0.811l-0.76,0.041    l0.403-0.216H18.6L18.469,39.861z M20.066,40.978c-0.853,0-1.309-0.664-1.309-1.266c0-0.703,0.574-1.304,1.39-1.304    c0.787,0,1.281,0.618,1.281,1.267C21.428,40.307,20.94,40.978,20.066,40.978z M22.92,40.978c-0.853,0-1.309-0.664-1.309-1.266    c0-0.703,0.574-1.304,1.389-1.304c0.788,0,1.283,0.618,1.283,1.267C24.283,40.307,23.794,40.978,22.92,40.978z M26.62,39.398    c0,0.397-0.225,0.585-0.45,0.762c-0.069,0.069-0.15,0.145-0.15,0.264c0,0.116,0.081,0.181,0.14,0.229l0.193,0.149    c0.236,0.199,0.45,0.381,0.45,0.752c0,0.504-0.488,1.014-1.41,1.014c-0.778,0-1.153-0.372-1.153-0.768    c0-0.193,0.095-0.468,0.413-0.656c0.333-0.203,0.783-0.23,1.024-0.246c-0.075-0.097-0.161-0.198-0.161-0.365    c0-0.091,0.028-0.145,0.054-0.209c-0.059,0.006-0.118,0.011-0.171,0.011c-0.569,0-0.891-0.424-0.891-0.842    c0-0.247,0.113-0.523,0.344-0.72c0.306-0.254,0.67-0.295,0.96-0.295h1.105l-0.344,0.193h-0.332    C26.364,38.773,26.62,38.987,26.62,39.398z M28,40.908h-0.949c0.123-0.16,0.144-0.177,0.144-0.283V39.75    c0-0.418,0.006-1.014,0.022-1.572c0.006-0.273,0.027-0.617,0.031-0.863h-0.417l0.402-0.193H28    c-0.166,0.095-0.22,0.129-0.241,0.317c-0.044,0.413-0.049,1.067-0.049,1.829v1.24c0,0.209,0.037,0.241,0.214,0.256    c0.09,0.012,0.183,0.018,0.274,0.028L28,40.908z M30.088,40.791c-0.058,0.033-0.119,0.071-0.178,0.096    c-0.176,0.083-0.359,0.104-0.521,0.104c-0.169,0-0.438-0.011-0.711-0.209c-0.382-0.27-0.547-0.731-0.547-1.132    c0-0.833,0.676-1.24,1.228-1.24c0.193,0,0.392,0.047,0.552,0.151c0.268,0.176,0.338,0.406,0.375,0.531l-1.261,0.508l-0.412,0.033    c0.132,0.682,0.593,1.078,1.104,1.078c0.273,0,0.472-0.096,0.654-0.188L30.088,40.791z M30.634,31.812    c-0.088,0.225-0.15,0.484-0.16,0.73c0.004-0.219,0-0.518,0-0.705c0-2.349-0.564-4.587-1.599-6.556    c0.019-0.297,0.029-0.595,0.029-0.893c0-2.502-0.682-4.951-1.972-7.083c-0.042-0.069-0.092-0.135-0.128-0.182    c-0.148-0.191-0.289-0.317-0.456-0.438c-0.002-0.001-0.016-0.011-0.03-0.02c2.409,1.492,4.468,3.523,5.888,5.796    c0.044,0.406,0.105,1.048,0.105,1.928c0,2.56-0.549,5.023-1.635,7.318C30.658,31.741,30.645,31.776,30.634,31.812z M33.748,40.909    h-0.382l-0.48-2.169l-0.492,2.169h-0.383l-0.557-2.431h0.301l0.457,2.18l0.478-2.18h0.388l0.481,2.18l0.447-2.18h0.295    L33.748,40.909z M36.108,40.906c-0.024-0.067-0.034-0.186-0.034-0.256c-0.116,0.17-0.388,0.311-0.642,0.311    c-0.448,0-0.799-0.27-0.799-0.812c0-0.498,0.355-0.773,0.863-0.773c0.245,0,0.446,0.044,0.577,0.105v-0.262    c0-0.397-0.176-0.547-0.577-0.547c-0.313,0-0.497,0.172-0.543,0.452l-0.271-0.04c0.056-0.395,0.367-0.662,0.824-0.662    c0.536,0,0.838,0.231,0.838,0.769v1.239c0,0.211,0.016,0.357,0.045,0.478L36.108,40.906z M36.144,30.421    c-0.381,1.381-0.82,2.453-1.254,3.268c-0.381,0.692-1.116,1.13-1.912,1.13c-0.323,0-0.633-0.07-0.93-0.21    c-0.644-0.308-1.046-0.869-1.188-1.486c-0.041-0.176-0.056-0.373-0.056-0.505c0-0.469,0.19-0.875,0.207-0.91    c1.086-2.295,1.636-4.758,1.636-7.318c0-2.561-0.548-5.027-1.654-7.36c-0.515-1.082-0.053-2.387,1.032-2.904    c0.295-0.14,0.612-0.211,0.934-0.211c0.838,0,1.61,0.488,1.971,1.243c0.672,1.413,1.188,2.903,1.537,4.428    c0.352,1.554,0.539,3.182,0.539,4.804c0,1.64-0.187,3.245-0.541,4.803C36.37,29.614,36.27,30.005,36.144,30.421z M37.174,40.909    h-0.275v-3.464h0.275V40.909z M38.037,40.909h-0.275v-3.464h0.275V40.909z M40.256,39.744h-1.481c0,0.668,0.251,0.959,0.633,0.959    c0.296,0,0.512-0.175,0.567-0.632l0.281,0.04c-0.071,0.586-0.407,0.854-0.849,0.854c-0.577,0-0.918-0.422-0.918-1.291    c0-0.777,0.291-1.25,0.89-1.25c0.627,0,0.877,0.522,0.877,1.229V39.744z M41.538,40.89c-0.061,0.025-0.171,0.046-0.291,0.046    c-0.362,0-0.477-0.18-0.477-0.527v-1.681h-0.316v-0.252h0.316v-0.783l0.281-0.11v0.894h0.486v0.252h-0.485v1.645    c0,0.232,0.045,0.296,0.239,0.296c0.097,0,0.183-0.02,0.247-0.055V40.89z" data-original="#000000" class="active-path" data-old_color="#000000" fill="#636363"/>
	</g>
</g><g>
	<g>
		<path d="M39.379,38.679c-0.377,0-0.584,0.316-0.604,0.813h1.186v-0.01C39.945,39.031,39.764,38.679,39.379,38.679z" data-original="#000000" class="active-path" data-old_color="#000000" fill="#636363"/>
	</g>
</g><g>
	<g>
		<path d="M25.472,38.656c-0.14,0-0.29,0.07-0.375,0.177c-0.09,0.113-0.118,0.259-0.118,0.398c0,0.358,0.21,0.956,0.671,0.956    c0.134,0,0.28-0.066,0.366-0.151c0.123-0.124,0.133-0.295,0.133-0.392C26.149,39.257,25.919,38.656,25.472,38.656z" data-original="#000000" class="active-path" data-old_color="#000000" fill="#636363"/>
	</g>
</g><g>
	<g>
		<path d="M29.206,38.585c-0.214,0-0.616,0.168-0.616,0.747c0,0.091,0.01,0.188,0.016,0.284l0.976-0.424    c0.102-0.038,0.156-0.07,0.156-0.146C29.738,38.831,29.497,38.585,29.206,38.585z" data-original="#000000" class="active-path" data-old_color="#000000" fill="#636363"/>
	</g>
</g><g>
	<g>
		<path d="M35.491,39.624c-0.341,0-0.582,0.17-0.582,0.527c0,0.376,0.226,0.557,0.538,0.557c0.275,0,0.525-0.2,0.627-0.417v-0.547    C35.939,39.68,35.748,39.624,35.491,39.624z" data-original="#000000" class="active-path" data-old_color="#000000" fill="#636363"/>
	</g>
</g><g>
	<g>
		<path d="M22.86,38.575c-0.177,0-0.353,0.069-0.482,0.181c-0.209,0.188-0.248,0.426-0.248,0.656c0,0.531,0.264,1.405,0.914,1.405    c0.209,0,0.422-0.103,0.546-0.274c0.129-0.171,0.161-0.386,0.161-0.595C23.751,39.476,23.526,38.575,22.86,38.575z" data-original="#000000" class="active-path" data-old_color="#000000" fill="#636363"/>
	</g>
</g><g>
	<g>
		<path d="M25.859,41.052c-0.043-0.006-0.07-0.006-0.123-0.006c-0.049,0-0.338,0.01-0.563,0.086    c-0.118,0.043-0.462,0.172-0.462,0.553s0.37,0.654,0.944,0.654c0.516,0,0.79-0.248,0.79-0.58    C26.445,41.487,26.267,41.341,25.859,41.052z" data-original="#000000" class="active-path" data-old_color="#000000" fill="#636363"/>
	</g>
</g></g> </svg>
